<svg 
class="icon" 
viewBox="0 0 1024 1024" 
version="1.1" 
xmlns="http://www.w3.org/2000/svg" 
width="200" height="250"
fill="#b9d9ed"
>
<path d="M899.859692 0h-762.617436C90.505846 0 52.512821 37.481026 52.512821 83.547897v856.904206C52.512821 986.518974 90.518974 1024 137.242256 1024h762.617436C946.609231 1024 984.615385 986.532103 984.615385 940.452103V83.547897C984.615385 37.481026 946.596103 0 899.859692 0zM579.872821 258.599385c30.851282 0 55.374769 23.998359 55.374769 54.140718 0 30.142359-24.536615 54.009436-55.374769 54.009435-30.851282 0-55.387897-23.998359-55.387898-54.009435-0.118154-29.538462 25.022359-54.140718 55.387898-54.140718z m215.919589 648.874666H163.288615c-16.029538 0-28.540718-12.301128-28.540718-27.844923 0-15.570051 12.511179-27.871179 28.540718-27.871179h633.094564c16.01641 0 28.540718 12.301128 28.540718 27.871179 0 15.543795-13.115077 27.844923-29.144615 27.844923z m-661.031384-163.84c0-15.570051 12.511179-27.858051 28.540718-27.858051H524.340513c16.01641 0 28.540718 12.288 28.540718 27.858051 0 15.543795-12.629333 27.844923-28.553846 27.844923H163.301744c-16.029538 0-28.540718-12.301128-28.540718-27.844923z m694.665846-102.610051c-4.594872 8.323282-14.322872 13.994667-25.140513 13.994667H163.288615a30.102974 30.102974 0 0 1-25.757538-15.07118 26.676513 26.676513 0 0 1 2.310564-28.934564l198.813538-265.977436a27.451077 27.451077 0 0 1 20.04677-11.080205 27.595487 27.595487 0 0 1 21.727179 6.747897L586.174359 515.163897l72.638359-78.598564a29.105231 29.105231 0 0 1 22.829949-8.927179 30.326154 30.326154 0 0 1 21.740307 11.697231l124.363488 172.767179c6.301538 8.310154 6.918564 19.403487 1.68041 28.921436z m104.093538-346.558359a35.616821 35.616821 0 0 1-10.633846 25.468718c-3.308308 3.295179-7.220513 5.907692-11.539692 7.719385-4.46359 1.877333-9.268513 2.835692-14.112821 2.835692H894.030769l-38.518154-21.950359-41.708307 23.762051-41.69518-23.762051-38.518154 21.950359h-3.190153a36.365128 36.365128 0 0 1-20.073026-5.986462 35.98441 35.98441 0 0 1-16.213333-30.063589V81.289846a35.603692 35.603692 0 0 1 10.633846-25.468718c3.308308-3.308308 7.220513-5.920821 11.539692-7.719384 4.46359-1.890462 9.255385-2.848821 14.099692-2.835693h166.833231a36.391385 36.391385 0 0 1 25.665641 10.568205 35.84 35.84 0 0 1 10.620718 25.468718V294.465641z"></path>
</svg>